<?xml version="1.0" encoding="utf-8"?>
<!-- Generator: Adobe Illustrator 16.0.0, SVG Export Plug-In . SVG Version: 6.00 Build 0)  -->
<!DOCTYPE svg PUBLIC "-//W3C//DTD SVG 1.1//EN" "http://www.w3.org/Graphics/SVG/1.1/DTD/svg11.dtd">
<svg version="1.1" id="图层_1" xmlns:sketch="http://www.bohemiancoding.com/sketch/ns"
	 xmlns="http://www.w3.org/2000/svg" xmlns:xlink="http://www.w3.org/1999/xlink" x="0px" y="0px" width="138px" height="42px"
	 viewBox="0 0 138 42" enable-background="new 0 0 138 42" xml:space="preserve">
<title>404</title>
<desc>Created with Sketch Beta.</desc>
<g id="Page-1" sketch:type="MSPage">
	<path id="_x34_04" sketch:type="MSShapeGroup" fill="#4285F4" d="M18,42V30H0V6h6V0h12v24h6V12h12v12h6v6h-6v12H18z M72,30V18h-6
		v-6h6V6H60v12h6v6h-6v6H72z M54,42v-6h-6V6h6V0h30v6h6v30h-6v6H54z M114,42V30H96V6h6V0h12v24h6V12h12v12h6v6h-6v12H114z"/>
</g>
</svg>
